<svg xmlns="http://www.w3.org/2000/svg" width="120" height="120" viewBox="0 0 120 120">
  <rect x="0" y="0" width="120" height="120" fill="#ffffff"></rect>

  <g fill="#FBE4D1" stroke="#C97B4D" stroke-width="1.4" stroke-opacity="0.3">
    <path d="M 58 36 C 56 28, 50 24, 48 20 Q 54 26, 60 28 Q 60 32, 58 36 Z"></path>
    <path d="M 64 35 C 70 28, 78 28, 80 22 Q 76 30, 72 32 Q 70 36, 64 35 Z"></path>
    <path d="M 50 38 C 46 34, 40 36, 38 32 Q 44 36, 48 36 Q 50 37, 50 38 Z"></path>
  </g>

  <path d="M 60 36 C 38 36, 24 56, 24 78 C 24 100, 40 116, 60 116 C 80 116, 96 100, 96 78 C 96 56, 82 36, 60 36 Z" fill="#FBE4D1" stroke="#E59B6A" stroke-width="2" stroke-opacity="0.22"></path>

  <path d="M 28 74 Q 18 70, 16 64 Q 20 70, 24 72 Q 18 74, 20 78 Q 24 76, 28 76 Z" fill="#FBE4D1" stroke="#E59B6A" stroke-width="1.4" stroke-opacity="0.25"></path>

  <path d="M 92 74 Q 102 70, 104 64 Q 100 70, 96 72 Q 102 74, 100 78 Q 96 76, 92 76 Z" fill="#FBE4D1" stroke="#E59B6A" stroke-width="1.4" stroke-opacity="0.25"></path>

  <ellipse cx="40" cy="76" rx="5.5" ry="3.6" fill="#E59B6A" opacity="0.35"></ellipse>
  <ellipse cx="78" cy="76" rx="5.5" ry="3.6" fill="#E59B6A" opacity="0.35"></ellipse>

  <!-- closed sleeping eyes -->
  <path d="M 46 69 Q 49 65 52 69" fill="none" stroke="#2E2A33" stroke-width="2" stroke-linecap="round"></path>
  <path d="M 68 69 Q 71 65 74 69" fill="none" stroke="#2E2A33" stroke-width="2" stroke-linecap="round"></path>

  <path d="M 56 78 L 60 84 L 64 78 Q 60 76, 56 78 Z" fill="#E8B86E" stroke="#C97B4D" stroke-width="1.2" stroke-opacity="0.4" stroke-linejoin="round"></path>
</svg>
